<svg xmlns="http://www.w3.org/2000/svg" viewBox="0 0 240 300" role="img" aria-labelledby="t d">
<title id="t">Loid — stylized poster</title>
<desc id="d">Neubrutalist poster for Loid Forger (SPY x FAMILY demo). Procedural, no copyright assets.</desc>
<rect x="12" y="12" width="220" height="280" fill="#16140F"/>
<rect x="0" y="0" width="220" height="280" fill="#FFFFFF" stroke="#16140F" stroke-width="4"/>
<rect x="10" y="10" width="200" height="150" fill="#2B57FF"/>
<rect x="10" y="10" width="200" height="150" fill="none" stroke="#16140F" stroke-width="3"/>
<circle cx="110" cy="88" r="38" fill="#F4C9A6"/>
<path d="M74 84 a36 36 0 0 1 72 0 l-4 34 h-64 Z" fill="#E8C36A"/>
<path d="M78 76 q32 14 64 0" fill="none" stroke="#16140F" stroke-width="4"/>
<circle cx="100" cy="94" r="4" fill="#16140F"/>
<circle cx="120" cy="94" r="4" fill="#16140F"/>
<path d="M104 106 q6 6 12 0" fill="none" stroke="#16140F" stroke-width="3"/>
<path d="M96 92 h28" stroke="#16140F" stroke-width="2"/>
<rect x="10" y="160" width="200" height="80" fill="#F4EFE6"/>
<path d="M10 160 h200 v30 q-22 16 -44 14 q-14 0 -24 -6 q-10 8 -22 8 q-30 0 -110 -16 Z" fill="#0E2A6B"/>
<path d="M110 178 v12 l8 8 h-16 Z" fill="#D64550"/>
<rect x="10" y="240" width="200" height="40" fill="#16140F"/>
<text x="20" y="267" font-family="Impact,'Arial Black',sans-serif" font-size="26" fill="#8CFF4D">LOID</text>
<text x="196" y="262" font-family="ui-monospace,monospace" font-size="9" fill="#F4EFE6" text-anchor="end" letter-spacing="1">TWILIGHT</text>
<text x="196" y="274" font-family="ui-monospace,monospace" font-size="9" fill="#F4EFE6" text-anchor="end" letter-spacing="1">WISE / OPERATIVE</text>
<circle cx="172" cy="196" r="14" fill="#FFFFFF" stroke="#16140F" stroke-width="4"/>
<circle cx="172" cy="196" r="5" fill="#16140F"/>
<rect x="182" y="204" width="8" height="14" fill="#16140F"/>
<rect x="194" y="186" width="24" height="30" fill="#FFD839" stroke="#16140F" stroke-width="4"/>
<path d="M206 186 v30" stroke="#16140F" stroke-width="4"/>
<text x="188" y="234" font-family="ui-monospace,monospace" font-size="8" font-weight="700" fill="#16140F">PSYCHIATRIST / COVER</text>
</svg>
